<svg width="400" height="300" xmlns="http://www.w3.org/2000/svg">
  <!-- Background -->
  <rect width="400" height="300" fill="#F4F6FA"/>
  
  <!-- Desktop App Window -->
  <rect x="75" y="50" width="250" height="200" rx="10" fill="#FFFFFF" stroke="#1A1F36" stroke-width="2"/>
  
  <!-- Window Controls -->
  <rect x="75" y="50" width="250" height="30" rx="10" fill="#1A1F36"/>
  <circle cx="95" cy="65" r="5" fill="#F5C35C"/>
  <circle cx="115" cy="65" r="5" fill="#3F8CFF"/>
  <circle cx="135" cy="65" r="5" fill="#FFFFFF"/>
  
  <!-- App Interface -->
  <rect x="95" y="100" width="70" height="130" rx="5" fill="#E5E7EB"/>
  <rect x="185" y="100" width="120" height="40" rx="5" fill="#3F8CFF"/>
  <rect x="185" y="150" width="120" height="10" rx="5" fill="#E5E7EB"/>
  <rect x="185" y="170" width="100" height="10" rx="5" fill="#E5E7EB"/>
  <rect x="185" y="190" width="80" height="10" rx="5" fill="#E5E7EB"/>
  <rect x="185" y="210" width="60" height="20" rx="5" fill="#F5C35C"/>
  
  <!-- Project Label -->
  <rect x="150" y="260" width="100" height="20" rx="5" fill="#3F8CFF"/>
  <text x="185" y="275" font-family="Arial" font-size="12" fill="#FFFFFF">APP</text>
</svg>