<svg width="400" height="300" xmlns="http://www.w3.org/2000/svg">
  <!-- Background -->
  <rect width="400" height="300" fill="#F4F6FA"/>
  
  <!-- Browser Window -->
  <rect x="50" y="50" width="300" height="200" rx="10" fill="#FFFFFF" stroke="#1A1F36" stroke-width="2"/>
  
  <!-- Browser Controls -->
  <rect x="50" y="50" width="300" height="30" rx="10" fill="#1A1F36"/>
  <circle cx="70" cy="65" r="5" fill="#F5C35C"/>
  <circle cx="90" cy="65" r="5" fill="#3F8CFF"/>
  <circle cx="110" cy="65" r="5" fill="#FFFFFF"/>
  
  <!-- Website Layout -->
  <rect x="70" y="100" width="260" height="20" rx="5" fill="#3F8CFF"/>
  <rect x="70" y="130" width="100" height="80" rx="5" fill="#F5C35C"/>
  <rect x="190" y="130" width="140" height="10" rx="5" fill="#E5E7EB"/>
  <rect x="190" y="150" width="120" height="10" rx="5" fill="#E5E7EB"/>
  <rect x="190" y="170" width="100" height="10" rx="5" fill="#E5E7EB"/>
  <rect x="190" y="200" width="60" height="20" rx="5" fill="#6B4EFF"/>
  
  <!-- Project Label -->
  <rect x="150" y="260" width="100" height="20" rx="5" fill="#3F8CFF"/>
  <text x="165" y="275" font-family="Arial" font-size="12" fill="#FFFFFF">WEB DESIGN</text>
</svg>