<svg width="600" height="400" xmlns="http://www.w3.org/2000/svg">
  <!-- Background -->
  <rect width="600" height="400" fill="#F4F6FA"/>
  
  <!-- Abstract Office/Team Environment -->
  
  <!-- Office Space -->
  <rect x="50" y="100" width="500" height="250" rx="10" fill="#FFFFFF" stroke="#1A1F36" stroke-width="2"/>
  
  <!-- Windows -->
  <rect x="80" y="130" width="100" height="150" rx="5" fill="#3F8CFF" opacity="0.2"/>
  <rect x="200" y="130" width="100" height="150" rx="5" fill="#3F8CFF" opacity="0.2"/>
  <rect x="320" y="130" width="100" height="150" rx="5" fill="#3F8CFF" opacity="0.2"/>
  <rect x="440" y="130" width="80" height="150" rx="5" fill="#3F8CFF" opacity="0.2"/>
  
  <!-- Desks -->
  <rect x="100" y="300" width="400" height="20" rx="5" fill="#1A1F36"/>
  
  <!-- People (Abstract) -->
  <circle cx="150" cy="250" r="30" fill="#F5C35C"/>
  <rect x="140" y="280" width="20" height="40" rx="5" fill="#F5C35C"/>
  
  <circle cx="250" cy="250" r="30" fill="#3F8CFF"/>
  <rect x="240" y="280" width="20" height="40" rx="5" fill="#3F8CFF"/>
  
  <circle cx="350" cy="250" r="30" fill="#6B4EFF"/>
  <rect x="340" y="280" width="20" height="40" rx="5" fill="#6B4EFF"/>
  
  <circle cx="450" cy="250" r="30" fill="#1A1F36"/>
  <rect x="440" y="280" width="20" height="40" rx="5" fill="#1A1F36"/>
  
  <!-- Computers (Abstract) -->
  <rect x="120" y="290" width="60" height="10" rx="2" fill="#E5E7EB"/>
  <rect x="220" y="290" width="60" height="10" rx="2" fill="#E5E7EB"/>
  <rect x="320" y="290" width="60" height="10" rx="2" fill="#E5E7EB"/>
  <rect x="420" y="290" width="60" height="10" rx="2" fill="#E5E7EB"/>
  
  <!-- Company Name/Logo -->
  <rect x="200" y="50" width="200" height="30" rx="5" fill="#1A1F36"/>
  <text x="300" y="72" font-family="Arial" font-size="18" font-weight="bold" text-anchor="middle" fill="#FFFFFF">AOUADI GROUP</text>
</svg>