<svg width="600" height="500" xmlns="http://www.w3.org/2000/svg">
  <!-- Background -->
  <rect width="600" height="500" fill="none"/>
  
  <!-- Abstract Digital Elements -->
  
  <!-- Laptop/Monitor -->
  <rect x="150" y="150" width="300" height="200" rx="10" fill="#1A1F36"/>
  <rect x="160" y="160" width="280" height="170" rx="5" fill="#F4F6FA"/>
  
  <!-- Website Layout on Screen -->
  <rect x="180" y="180" width="240" height="20" rx="3" fill="#3F8CFF"/>
  <rect x="180" y="210" width="100" height="10" rx="2" fill="#E5E7EB"/>
  <rect x="180" y="230" width="150" height="10" rx="2" fill="#E5E7EB"/>
  <rect x="180" y="250" width="120" height="10" rx="2" fill="#E5E7EB"/>
  
  <rect x="180" y="280" width="60" height="30" rx="5" fill="#F5C35C"/>
  
  <rect x="320" y="210" width="80" height="80" rx="5" fill="#6B4EFF" opacity="0.7"/>
  
  <!-- Base/Stand -->
  <path d="M280 350 L320 350 L330 380 L270 380 Z" fill="#1A1F36"/>
  <rect x="290" y="380" width="20" height="5" rx="2" fill="#1A1F36"/>
  
  <!-- Floating Elements -->
  <circle cx="100" cy="100" r="30" fill="#3F8CFF" opacity="0.2"/>
  <circle cx="500" cy="150" r="40" fill="#F5C35C" opacity="0.2"/>
  <circle cx="450" cy="400" r="35" fill="#6B4EFF" opacity="0.2"/>
  <circle cx="150" cy="350" r="25" fill="#3F8CFF" opacity="0.2"/>
  
  <!-- Connecting Lines -->
  <line x1="100" y1="100" x2="150" y2="150" stroke="#3F8CFF" stroke-width="2" opacity="0.5"/>
  <line x1="500" y1="150" x2="450" y2="200" stroke="#F5C35C" stroke-width="2" opacity="0.5"/>
  <line x1="450" y1="400" x2="400" y2="350" stroke="#6B4EFF" stroke-width="2" opacity="0.5"/>
  <line x1="150" y1="350" x2="200" y2="300" stroke="#3F8CFF" stroke-width="2" opacity="0.5"/>
  
  <!-- Code Elements -->
  <rect x="50" y="200" width="80" height="120" rx="5" fill="#1A1F36" opacity="0.8"/>
  <rect x="60" y="210" width="60" height="5" rx="2" fill="#F5C35C"/>
  <rect x="60" y="225" width="40" height="5" rx="2" fill="#3F8CFF"/>
  <rect x="60" y="240" width="50" height="5" rx="2" fill="#FFFFFF"/>
  <rect x="60" y="255" width="30" height="5" rx="2" fill="#3F8CFF"/>
  <rect x="60" y="270" width="55" height="5" rx="2" fill="#FFFFFF"/>
  <rect x="60" y="285" width="45" height="5" rx="2" fill="#F5C35C"/>
  <rect x="60" y="300" width="35" height="5" rx="2" fill="#FFFFFF"/>
  
  <!-- Design Elements -->
  <rect x="470" y="200" width="80" height="120" rx="5" fill="#1A1F36" opacity="0.8"/>
  <circle cx="510" cy="230" r="15" fill="#F5C35C"/>
  <rect x="490" y="260" width="40" height="5" rx="2" fill="#FFFFFF"/>
  <rect x="490" y="275" width="30" height="5" rx="2" fill="#FFFFFF"/>
  <rect x="490" y="290" width="40" height="20" rx="3" fill="#3F8CFF"/>
</svg>